<?xml version="1.0" encoding="UTF-8"?><svg id="a" xmlns="http://www.w3.org/2000/svg" viewBox="0 0 216.73 216.73"><defs><style>.b{fill:#303030;}</style></defs><path class="b" d="M108.43,4.48c26.33,.3,49.48,9,69.16,26.54,16.09,14.34,26.62,32.1,31.79,53.02,2.24,9.09,3.16,18.35,2.84,27.71-.3,8.75-1.92,17.29-4.08,25.78-3.24,12.68-8.37,24.4-16.28,34.87-7.71,10.2-17.45,18.05-28.43,24.41-9.49,5.49-19.49,9.77-30.16,12.42-5.57,1.38-11.22,2.28-16.95,2.7-6.43,.46-12.86,.49-19.28-.22-9.59-1.06-18.88-3.38-27.77-7.13-27.9-11.79-47.32-31.85-58.28-60.08-2.49-6.41-4.13-13.06-5.2-19.86-1.04-6.59-1.62-13.23-1.24-19.88C6.59,68.85,22.57,40.82,52.48,20.89c11.78-7.85,24.85-12.67,38.82-15,5.67-.94,11.38-1.41,17.13-1.42Zm-.15,106.77c-.04,.22-.06,.43-.11,.65-1.04,4.45-1.49,8.93-.76,13.47,1.2,7.51,5.11,13.46,11.69,17.02,9.63,5.2,20.08,7.36,31.08,6.44,8.71-.73,16.78-3.43,24.23-7.91,14.18-8.52,23.96-20.85,30.64-35.81,.16-.35,.22-.78,.2-1.16-.11-1.93-.2-3.87-.41-5.79-.76-6.65-2.05-13.19-4.17-19.55-7.78-23.26-22.23-41.19-43.23-53.84-.31-.19-.65-.34-.97-.51,.15,.57,.42,.96,.7,1.34,3.16,4.32,5.93,8.86,8.25,13.68,4,8.31,6.44,17.05,7.12,26.25,.34,4.59,.22,9.19-.37,13.78-.76,5.97-2.13,11.77-4.46,17.32-4.35,10.36-11.29,18.27-21.78,22.75-5.21,2.22-10.61,3.47-16.31,2.9-6.23-.62-11.63-3.21-16.49-7.03-1.5-1.18-2.91-2.48-4.36-3.73,.57-.23,.99-.24,1.41-.19,6.02,.75,11.95,.3,17.78-1.43,12.56-3.73,21.1-14.09,22-27.16,.57-8.23-.57-16.32-3.13-24.19-3.6-11.07-9.95-20.35-18.49-28.17-8.67-7.94-18.68-13.74-29.5-18.2-.54-.22-1.23-.23-1.82-.15-2.42,.33-4.85,.65-7.24,1.13-8.63,1.72-16.91,4.49-24.76,8.49-18.11,9.23-32.06,22.77-41.86,40.57-.58,1.05-.95,2.2-1.52,3.56,2.85-2.2,5.36-4.27,8-6.15,10.47-7.46,22.03-12.27,34.8-13.96,5.67-.75,11.36-.71,17.04,.15,6.53,.99,12.7,2.99,18.42,6.31,10.63,6.16,17.66,15.3,22.02,26.67,1.94,5.06,1.68,9.99-.38,14.91-2.17,5.17-5.63,9.46-9.4,13.51-1.09,1.17-2.3,2.24-3.28,3.19,.51-2.6,1.2-5.36,1.58-8.17,.62-4.56,.16-9.05-1.75-13.29-2.55-5.67-6.99-9.46-12.39-12.23-6.58-3.38-13.67-5.06-20.95-5.86-7.82-.86-15.44,.14-22.77,3.11-9.1,3.69-16.38,9.79-22.6,17.25-7.53,9.04-12.96,19.31-17.35,30.17-.14,.35-.22,.8-.14,1.16,.89,4.17,1.56,8.41,2.76,12.48,7.74,26.17,23.76,45.71,47.6,58.9,.25,.14,.53,.23,.91,.4-1.75-2.57-3.48-4.92-5.01-7.4-8.37-13.55-12.3-28.19-10.78-44.17,.77-8.05,2.98-15.67,6.6-22.89,2.57-5.12,5.54-9.97,10.02-13.71,7.41-6.17,15.78-9.21,25.47-7.63,8.01,1.31,14.05,5.6,18.26,12.51-.24-.07-.49-.15-.73-.22-6.16-1.7-12.36-2.89-18.8-1.85-5.87,.95-10.52,3.78-13.77,8.79-3.48,5.37-4.62,11.46-5.13,17.68-.47,5.76-.38,11.53,.4,17.28,.75,5.57,2.16,10.94,4.49,16.05,4.22,9.28,10.98,16.38,19.19,22.21,7.57,5.37,15.84,9.48,24.15,13.52,.46,.22,1.08,.26,1.59,.18,3.77-.64,7.59-1.11,11.29-2.04,25.75-6.47,45.68-21.04,59.91-43.44,.22-.35,.43-.72,.64-1.07-.37-.03-.59,.06-.79,.19-10.14,6.39-21.07,10.62-32.98,12.21-9.15,1.22-18.23,.89-27.13-1.66-14.16-4.06-24.97-12.36-32.06-25.39-3.91-7.18-3.78-14.21,.42-21.2,2.51-4.18,5.85-7.65,9.29-11.05Z"/></svg>