<?xml version="1.0" encoding="UTF-8"?>
<svg width="700pt" height="700pt" version="1.1" viewBox="0 0 700 700" xmlns="http://www.w3.org/2000/svg">
 <path d="m582.05 41.824c-9.8477-9.7656-23.062-15.387-36.926-15.715-13.867-0.32422-27.328 4.6719-37.625 13.965l-43.926 40.25c-4.5938 4.2539-6.5742 10.633-5.1875 16.738 1.3828 6.1055 5.918 11.008 11.898 12.863 5.9805 1.8516 12.496 0.375 17.09-3.875l43.75-40.25c4.875-4.8789 11.984-6.7812 18.645-4.9961 6.6641 1.7852 11.867 6.9883 13.652 13.648 1.7852 6.6641-0.12109 13.77-4.9961 18.648l-227.5 248.85v-0.003906c-5.0469-10.375-11.789-19.84-19.949-28-8.2266-8.0234-17.754-14.59-28.176-19.426l77-70c4.625-4.25 6.6328-10.648 5.2656-16.777-1.3711-6.1328-5.9062-11.07-11.902-12.953-5.9961-1.8789-12.539-0.41797-17.164 3.832l-94.5 85.227c-29.781-1.8125-58.922 9.1328-80.148 30.098-38.148 38.148-35 76.301-34.125 106.93 1.3984 25.898 2.625 46.199-16.102 67.023-5.375 4.5547-8.6172 11.137-8.9492 18.172-0.33203 7.0352 2.2773 13.891 7.1992 18.93 8.8359 6.4844 19.699 9.5859 30.625 8.75 62.684-4.7969 122.12-29.789 169.4-71.227 19.812-19.594 30.914-46.332 30.801-74.199v-6.3008l243.78-265.47c9.3594-10.309 14.387-23.828 14.027-37.75-0.35938-13.918-6.0742-27.164-15.953-36.977zm-296.98 395.68c-36.926 36.926-105 57.75-138.25 61.074 14.223-24.074 19.605-52.355 15.227-79.973-1.5742-28.523-2.9766-52.5 23.977-80.148l-0.003906-0.003906c17.695-17.691 43.484-24.602 67.652-18.125 24.172 6.4766 43.051 25.352 49.527 49.523 6.4766 24.168-0.43359 49.957-18.129 67.652z"/>
</svg>
