<?xml version="1.0" encoding="UTF-8"?>
<svg width="700pt" height="700pt" version="1.1" viewBox="0 0 700 700" xmlns="http://www.w3.org/2000/svg">
 <g>
  <path d="m352.1 525c4.6406 0 9.0898-1.8438 12.371-5.125 3.2852-3.2812 5.1289-7.7344 5.1289-12.375v-61.074h16.625c11.715 0 22.961-4.6055 31.309-12.824 8.3477-8.2148 13.133-19.387 13.316-31.102v-68.25c0-11.836-4.7031-23.188-13.07-31.555-8.3711-8.3672-19.723-13.07-31.555-13.07h-16.625v-237.12c0-6.2539-3.3359-12.031-8.75-15.156-5.418-3.125-12.086-3.125-17.5 0-5.418 3.125-8.75 8.9023-8.75 15.156v236.43h-16.625c-11.836 0-23.188 4.6992-31.555 13.07-8.3711 8.3672-13.07 19.719-13.07 31.555v68.949c0 11.836 4.6992 23.188 13.07 31.555 8.3672 8.3672 19.719 13.07 31.555 13.07h16.625v60.375c0 4.6406 1.8438 9.0938 5.125 12.375s7.7305 5.125 12.375 5.125zm-43.75-122.5v-68.25c0-5.3164 4.3086-9.625 9.625-9.625h68.25c5.3125 0 9.625 4.3086 9.625 9.625v68.25c0 5.3164-4.3125 9.625-9.625 9.625h-68.25c-2.5547 0-5.0039-1.0156-6.8086-2.8203-1.8047-1.8047-2.8164-4.2539-2.8164-6.8047z"/>
  <path d="m525 317.27c-4.6406 0-9.0938 1.8438-12.375 5.1289-3.2812 3.2812-5.125 7.7305-5.125 12.371v172.73c0 6.2539 3.3359 12.031 8.75 15.156s12.086 3.125 17.5 0 8.75-8.9023 8.75-15.156v-172.73c0-4.6406-1.8438-9.0898-5.125-12.371-3.2812-3.2852-7.7344-5.1289-12.375-5.1289z"/>
  <path d="m253.75 227.5v-68.602c0.003906-11.684-4.5781-22.902-12.758-31.246-8.1836-8.3477-19.309-13.148-30.992-13.379h-17.5v-61.773c0-6.2539-3.3359-12.031-8.75-15.156s-12.086-3.125-17.5 0-8.75 8.9023-8.75 15.156v61.773h-17.5c-11.684 0.23047-22.809 5.0312-30.992 13.379-8.1797 8.3438-12.762 19.562-12.758 31.246v68.602c0 11.852 4.6953 23.219 13.059 31.617 8.3633 8.3945 19.715 13.137 31.566 13.184h16.625v235.2c0 6.2539 3.3359 12.031 8.75 15.156s12.086 3.125 17.5 0 8.75-8.9023 8.75-15.156v-235.73h17.5c11.609-0.26953 22.656-5.0391 30.82-13.297 8.1602-8.2617 12.797-19.367 12.93-30.977zm-122.5 0v-68.602c0-5.3125 4.3086-9.625 9.625-9.625h69.125c5.3164 0 9.625 4.3125 9.625 9.625v68.602c0 5.3438-4.2812 9.7031-9.625 9.8008h-69.125c-5.3438-0.097656-9.625-4.457-9.625-9.8008z"/>
  <path d="m560 114.27h-17.5v-61.773c0-6.2539-3.3359-12.031-8.75-15.156s-12.086-3.125-17.5 0-8.75 8.9023-8.75 15.156v61.773h-16.625c-11.836 0-23.188 4.7031-31.555 13.07-8.3672 8.3711-13.07 19.723-13.07 31.555v68.602c0 11.852 4.6953 23.219 13.059 31.617 8.3633 8.3945 19.715 13.137 31.566 13.184h69.125c11.699-0.27344 22.824-5.1172 31-13.488s12.754-19.609 12.75-31.312v-68.602c0.003906-11.684-4.5781-22.902-12.758-31.246-8.1836-8.3477-19.309-13.148-30.992-13.379zm8.75 113.23c0 5.3438-4.2812 9.7031-9.625 9.8008h-68.25c-5.3438-0.097656-9.625-4.457-9.625-9.8008v-68.602c0-5.3125 4.3086-9.625 9.625-9.625h69.125c5.3164 0 9.625 4.3125 9.625 9.625z"/>
 </g>
</svg>
