<?xml version="1.0" encoding="UTF-8"?>
<svg width="700pt" height="700pt" version="1.1" viewBox="0 0 700 700" xmlns="http://www.w3.org/2000/svg">
 <g>
  <path d="m554.23 87.5h-70c-11.336-0.015625-22.422 3.332-31.852 9.625l-31.5 21.352-23.977-18.727c-9.9883-7.8438-22.297-12.152-35-12.25h-216.12c-15.453 0-30.277 6.1406-41.207 17.066-10.926 10.93-17.066 25.754-17.066 41.207v80.328c0 6.25 3.3359 12.027 8.75 15.152 5.4141 3.1289 12.086 3.1289 17.5 0 5.4141-3.125 8.75-8.9023 8.75-15.152v-80.328c-0.046875-6.1875 2.3906-12.133 6.7656-16.508s10.32-6.8125 16.508-6.7656h215.78c5 0.011719 9.8594 1.6719 13.824 4.7266l25.023 19.773c5.457 4.25 12.113 6.6719 19.023 6.9258 6.9141 0.25 13.727-1.6836 19.477-5.5273l33.602-22.047c3.5742-2.4102 7.7656-3.7461 12.074-3.8516h70c6.1289 0.046875 11.984 2.5234 16.285 6.8906 4.2969 4.3633 6.6875 10.258 6.6406 16.383v268.45c0.046875 6.1875-2.3906 12.133-6.7656 16.508s-10.32 6.8125-16.508 6.7656h-70c-4.4297-0.035156-8.7539-1.375-12.426-3.8516l-33.25-22.051v0.003906c-5.75-3.8438-12.566-5.7773-19.477-5.5273-6.9102 0.25391-13.57 2.6758-19.023 6.9258l-25.023 19.773h-0.003906c-3.9609 3.0547-8.8203 4.7148-13.824 4.7266h-215.43c-6.1875 0.046875-12.133-2.3906-16.508-6.7656s-6.8125-10.32-6.7656-16.508v-35c0-6.2539-3.3359-12.031-8.75-15.156s-12.086-3.125-17.5 0-8.75 8.9023-8.75 15.156v35c0 15.453 6.1406 30.277 17.066 41.207 10.93 10.926 25.754 17.066 41.207 17.066h215.78c12.688-0.16406 24.977-4.4648 35-12.25l23.801-18.727 31.852 21.352h-0.003906c9.4297 6.293 20.516 9.6406 31.852 9.625h70c15.484 0.046875 30.352-6.0742 41.32-17.008 10.965-10.934 17.129-25.781 17.129-41.266v-268.45c0-15.453-6.1406-30.277-17.066-41.207-10.93-10.926-25.754-17.066-41.207-17.066z"/>
  <path d="m437.32 280c0 9.6641-7.8359 17.5-17.5 17.5-9.6641 0-17.5-7.8359-17.5-17.5s7.8359-17.5 17.5-17.5c9.6641 0 17.5 7.8359 17.5 17.5"/>
  <path d="m437.32 197.75c0 9.6641-7.8359 17.5-17.5 17.5-9.6641 0-17.5-7.8359-17.5-17.5s7.8359-17.5 17.5-17.5c9.6641 0 17.5 7.8359 17.5 17.5"/>
  <path d="m437.32 362.25c0 9.6641-7.8359 17.5-17.5 17.5-9.6641 0-17.5-7.8359-17.5-17.5s7.8359-17.5 17.5-17.5c9.6641 0 17.5 7.8359 17.5 17.5"/>
 </g>
</svg>
