<?xml version="1.0" encoding="UTF-8"?><svg id="a" xmlns="http://www.w3.org/2000/svg" viewBox="0 0 216.73 216.73"><defs><style>.b{fill:#303030;}</style></defs><g><ellipse class="b" cx="21.91" cy="16.02" rx="13.72" ry="14.43"/><ellipse class="b" cx="41.63" cy="22.59" rx="13.17" ry="13.85"/><ellipse class="b" cx="61.84" cy="29.29" rx="12.08" ry="12.71"/><ellipse class="b" cx="81.83" cy="36.03" rx="11.18" ry="11.76"/><ellipse class="b" cx="101.99" cy="42.59" rx="10.38" ry="10.91"/><ellipse class="b" cx="121.98" cy="49.36" rx="9.48" ry="9.97"/><ellipse class="b" cx="142" cy="56.01" rx="8.53" ry="8.97"/><ellipse class="b" cx="161.91" cy="62.72" rx="7.71" ry="8.11"/><ellipse class="b" cx="182.05" cy="69.32" rx="6.91" ry="7.26"/><ellipse class="b" cx="202.11" cy="76.01" rx="6.04" ry="6.35"/></g><g><ellipse class="b" cx="21.91" cy="52.87" rx="13.72" ry="14.43"/><ellipse class="b" cx="41.98" cy="57.05" rx="13.17" ry="13.85"/><ellipse class="b" cx="62.02" cy="61.68" rx="12.08" ry="12.71"/><ellipse class="b" cx="82.05" cy="65.93" rx="11.18" ry="11.76"/><ellipse class="b" cx="101.99" cy="70.24" rx="10.38" ry="10.91"/><ellipse class="b" cx="121.98" cy="74.57" rx="9.48" ry="9.97"/><ellipse class="b" cx="142.2" cy="78.96" rx="8.53" ry="8.97"/><ellipse class="b" cx="162.12" cy="83.23" rx="7.71" ry="8.11"/><ellipse class="b" cx="182.05" cy="87.49" rx="6.91" ry="7.26"/><ellipse class="b" cx="202.11" cy="92.04" rx="6.04" ry="6.35"/></g><g><ellipse class="b" cx="22.06" cy="89.82" rx="13.72" ry="14.43"/><ellipse class="b" cx="41.98" cy="91.52" rx="13.17" ry="13.85"/><ellipse class="b" cx="62.02" cy="93.86" rx="12.08" ry="12.71"/><ellipse class="b" cx="82.28" cy="95.83" rx="11.18" ry="11.76"/><ellipse class="b" cx="102.28" cy="97.89" rx="10.38" ry="10.91"/><ellipse class="b" cx="122.33" cy="99.77" rx="9.48" ry="9.97"/><ellipse class="b" cx="142.2" cy="101.9" rx="8.53" ry="8.97"/><ellipse class="b" cx="162.12" cy="103.74" rx="7.71" ry="8.11"/><ellipse class="b" cx="182.24" cy="105.85" rx="6.91" ry="7.26"/><ellipse class="b" cx="202.11" cy="107.8" rx="6.04" ry="6.35"/></g><g><ellipse class="b" cx="22.07" cy="126.66" rx="13.72" ry="14.43" transform="translate(-14.16 3.3) rotate(-6.48)"/><ellipse class="b" cx="42.06" cy="126.1" rx="13.17" ry="13.85" transform="translate(-13.97 5.55) rotate(-6.48)"/><ellipse class="b" cx="62.23" cy="126.17" rx="12.08" ry="12.71" transform="translate(-13.85 7.83) rotate(-6.48)"/><ellipse class="b" cx="82.39" cy="125.83" rx="11.18" ry="11.76" transform="translate(-13.68 10.11) rotate(-6.48)"/><ellipse class="b" cx="102.31" cy="125.43" rx="10.38" ry="10.91" transform="translate(-13.51 12.35) rotate(-6.48)"/><ellipse class="b" cx="122.25" cy="125.23" rx="9.48" ry="9.97" transform="translate(-13.36 14.6) rotate(-6.48)"/><ellipse class="b" cx="142.23" cy="124.72" rx="8.53" ry="8.97" transform="translate(-13.17 16.86) rotate(-6.48)"/><ellipse class="b" cx="162.23" cy="124.49" rx="7.71" ry="8.11" transform="translate(-13.02 19.11) rotate(-6.48)"/><ellipse class="b" cx="182.27" cy="124.12" rx="6.91" ry="7.26" transform="translate(-12.85 21.37) rotate(-6.48)"/><ellipse class="b" cx="202.23" cy="123.82" rx="6.04" ry="6.35" transform="translate(-12.69 23.62) rotate(-6.48)"/></g><g><ellipse class="b" cx="22.29" cy="163.7" rx="13.72" ry="14.43" transform="translate(-35.6 8.97) rotate(-12.76)"/><ellipse class="b" cx="42.1" cy="160.96" rx="13.17" ry="13.85" transform="translate(-34.51 13.27) rotate(-12.76)"/><ellipse class="b" cx="62.54" cy="158.44" rx="12.08" ry="12.71" transform="translate(-33.45 17.72) rotate(-12.76)"/><ellipse class="b" cx="82.54" cy="155.71" rx="11.18" ry="11.76" transform="translate(-32.35 22.08) rotate(-12.76)"/><ellipse class="b" cx="102.45" cy="153.23" rx="10.38" ry="10.91" transform="translate(-31.31 26.41) rotate(-12.76)"/><ellipse class="b" cx="122.33" cy="150.33" rx="9.48" ry="9.97" transform="translate(-30.18 30.73) rotate(-12.76)"/><ellipse class="b" cx="142.43" cy="147.68" rx="8.53" ry="8.97" transform="translate(-29.1 35.1) rotate(-12.76)"/><ellipse class="b" cx="162.46" cy="145.14" rx="7.71" ry="8.11" transform="translate(-28.04 39.47) rotate(-12.76)"/><ellipse class="b" cx="182.24" cy="142.27" rx="6.91" ry="7.26" transform="translate(-26.92 43.76) rotate(-12.76)"/><ellipse class="b" cx="202.23" cy="139.66" rx="6.04" ry="6.35" transform="translate(-25.85 48.11) rotate(-12.76)"/></g><g><ellipse class="b" cx="22.6" cy="200.72" rx="13.72" ry="14.43" transform="translate(-27.29 4.99) rotate(-7.88)"/><ellipse class="b" cx="42.18" cy="195.67" rx="13.17" ry="13.85" transform="translate(-61.22 24.28) rotate(-18.94)"/><ellipse class="b" cx="62.54" cy="190.63" rx="12.08" ry="12.71" transform="translate(-46.67 22.33) rotate(-14.82)"/><ellipse class="b" cx="82.54" cy="185.64" rx="11.18" ry="11.76" transform="translate(-29.48 16.15) rotate(-9.49)"/><ellipse class="b" cx="102.73" cy="180.69" rx="10.38" ry="10.91" transform="translate(-26.41 17.82) rotate(-8.79)"/><ellipse class="b" cx="122.57" cy="175.72" rx="9.48" ry="9.97" transform="translate(-35.78 31.41) rotate(-12.76)"/><ellipse class="b" cx="142.43" cy="170.6" rx="8.53" ry="8.97" transform="translate(-18.35 17.17) rotate(-6.48)"/><ellipse class="b" cx="162.43" cy="165.52" rx="7.71" ry="8.11" transform="translate(-20.23 22.64) rotate(-7.51)"/><ellipse class="b" cx="182.49" cy="160.46" rx="7.26" ry="6.91" transform="translate(-4.17 316.05) rotate(-81.14)"/><ellipse class="b" cx="202.46" cy="155.58" rx="6.04" ry="6.35" transform="translate(-39.53 74.13) rotate(-18.94)"/></g></svg>