<?xml version="1.0" encoding="UTF-8"?>
<svg width="700pt" height="700pt" version="1.1" viewBox="0 0 700 700" xmlns="http://www.w3.org/2000/svg">
 <g>
  <path d="m292.07 248.15h-12.074c-6.2539 0-12.031 3.3359-15.156 8.75-3.125 5.418-3.125 12.086 0 17.5 3.125 5.418 8.9023 8.75 15.156 8.75h12.426c6.25 0 12.027-3.332 15.156-8.75 3.125-5.4141 3.125-12.082 0-17.5-3.1289-5.4141-8.9062-8.75-15.156-8.75z"/>
  <path d="m347.73 177.8c-0.0625 4.168 1.3672 8.2227 4.0312 11.43 2.6641 3.2109 6.3828 5.3594 10.492 6.0703 33.598 4.5156 65.504 17.457 92.75 37.625 3.5078 2.3945 7.7734 3.4336 11.988 2.918 4.2188-0.51562 8.1055-2.5469 10.938-5.7188 3.3203-3.6992 4.9141-8.6328 4.3789-13.574-0.53516-4.9414-3.1445-9.4219-7.1797-12.324-31.789-22.891-68.777-37.508-107.62-42.527-4.7852-0.64062-9.625 0.72656-13.367 3.7773-3.7461 3.0469-6.0625 7.5078-6.4062 12.324z"/>
  <path d="m388.32 107.98c-11.125-1.7031-22.348-2.6953-33.598-2.9766-17.043 0.007812-34.043 1.707-50.75 5.0742-14.047-14.113-30.23-25.922-47.953-35-7.0898-3.8984-15.621-4.1562-22.938-0.69141-7.3125 3.4648-12.516 10.234-13.984 18.191-5.0742 33.949-8.2266 52.5-9.625 61.074l-12.426 10.324v0.003906c-11.609 10.934-21.73 23.348-30.102 36.922h-34.125c-12.047-0.1875-23.66 4.5-32.195 13.004-8.5391 8.5039-13.273 20.098-13.129 32.148v51.449c0.27734 11.805 5.2188 23.02 13.746 31.188 8.5312 8.168 19.949 12.621 31.754 12.387h24.5c9.9805 22.453 24.66 42.504 43.051 58.801l-8.9258 14.699c-6.4805 11.289-8.1875 24.699-4.7383 37.254 3.4531 12.551 11.773 23.207 23.113 29.598 11.285 6.4844 24.664 8.2852 37.262 5.0156 12.602-3.2734 23.41-11.359 30.113-22.516l10.148-17.5c40.816 11.484 83.895 12.328 125.12 2.4492l7.875 14.176c6.7344 11.172 17.578 19.258 30.207 22.531 12.625 3.2695 26.031 1.4648 37.344-5.0312 11.551-6.4688 20.004-17.32 23.449-30.102 3.3633-12.41 1.5977-25.652-4.8984-36.75l-4.5508-8.3984c39.062-30.047 62.367-76.207 63.352-125.48 0.16797-3.0312 0.16797-6.0664 0-9.0977 15.168-1.6992 29.027-9.3867 38.5-21.352 9.4219-14.469 11.742-32.441 6.3008-48.824-1.5664-6.0664-6.2461-10.836-12.277-12.516-6.0352-1.6758-12.504-0.007812-16.977 4.375-4.4688 4.3867-6.2617 10.824-4.6992 16.891 2.6875 6.2578 2.6875 13.344 0 19.598-4.4258 4.3672-10.25 7.0312-16.449 7.5273-5.3906-17.258-13.676-33.469-24.5-47.949-3.0273-4.5586-8.0156-7.4414-13.477-7.7852-5.4648-0.33984-10.773 1.8906-14.348 6.0352-3.1289 2.9609-5.0586 6.9727-5.4141 11.27-0.35547 4.293 0.88672 8.5664 3.4883 12.004 15.684 20.32 24.289 45.211 24.5 70.875-1.2773 42.5-23.23 81.703-58.801 105-4.1875 2.8828-7.1406 7.2344-8.2773 12.195-1.1328 4.957-0.36328 10.16 2.1523 14.578l10.676 19.773v0.003906c1.9336 3.0781 2.4453 6.8398 1.4023 10.324-0.93359 3.6992-3.3359 6.8633-6.6523 8.75-3.3281 1.8633-7.2383 2.3945-10.941 1.4844-3.7031-0.91016-6.9219-3.1914-9.0078-6.3828l-13.125-24.328c-3.6641-6.2031-10.297-10.051-17.5-10.148-1.9141-0.26953-3.8594-0.26953-5.7734 0-41.406 11.91-85.441 11.055-126.35-2.4492-4.7578-1.7188-9.9844-1.6133-14.668 0.29297-4.6875 1.9062-8.5 5.4805-10.707 10.031l-16.102 26.773c-2.1523 2.8125-5.2266 4.7773-8.6836 5.543-3.457 0.76953-7.0742 0.29297-10.215-1.3398-3.3516-1.7656-5.7734-4.8945-6.6484-8.5781-1.0469-3.4805-0.53516-7.2461 1.3984-10.324 5.0742-8.75 7.875-13.125 10.148-17.5 2.2734-4.375 2.9766-4.7266 4.5508-7.5234 2.6094-4.4531 3.5312-9.6953 2.6016-14.77-0.93359-5.0742-3.6562-9.6445-7.6758-12.883-20.27-15.625-35.781-36.594-44.801-60.547-1.5547-4.0273-4.2969-7.4844-7.8555-9.9219-3.5625-2.4375-7.7773-3.7383-12.094-3.7305h-34.301c-4.9023 0.45312-9.3594-2.8672-10.324-7.6992v-50.75c0.089844-2.5547 1.1953-4.9648 3.0664-6.707 1.8711-1.7383 4.3555-2.6641 6.9102-2.5664h42.523c7.2578-0.24219 13.875-4.2109 17.5-10.5 7.0742-13.02 16.172-24.836 26.949-35l15.574-12.949c5.7734-4.5508 6.3008-4.8984 15.051-61.426 0-1.5742 2.1016-2.625 3.3242-1.75 17.5 11.375 39.551 30.625 41.648 53.375l-2.1016 2.1016 0.003907-0.003906c-4.3945 3.6133-6.7617 9.1328-6.3438 14.809 0.41797 5.6719 3.5664 10.789 8.4453 13.719h0.875c3.668 2.4961 8.1523 3.5078 12.539 2.8242 4.3828-0.68359 8.3477-3.0078 11.086-6.5 5.9766-7.543 9.625-16.668 10.5-26.25v-2.2773c-0.46875-8.6094-2.4219-17.078-5.7773-25.023 10.086-1.5273 20.254-2.4062 30.453-2.625 9.4219 0.011719 18.836 0.65625 28.172 1.9258 5.0508 0.71484 10.16-0.80859 13.992-4.1719 3.832-3.3633 6.0078-8.2305 5.9609-13.328-0.18359-3.9883-1.7227-7.793-4.3672-10.785-2.6406-2.9922-6.2266-4.9922-10.16-5.6641z"/>
 </g>
</svg>
