<?xml version="1.0" encoding="UTF-8"?>
<svg width="700pt" height="700pt" version="1.1" viewBox="0 0 700 700" xmlns="http://www.w3.org/2000/svg">
 <g>
  <path d="m571.55 167.82c4.6406 0 9.0898-1.8438 12.375-5.125 3.2812-3.2812 5.125-7.7344 5.125-12.375v-52.5c0.046875-14.262-5.5977-27.953-15.684-38.039-10.086-10.086-23.777-15.73-38.043-15.684h-242.72c-14.355-0.003906-28.113 5.7578-38.18 15.992-10.066 10.23-15.605 24.078-15.371 38.43v242.73c0 14.203 5.6406 27.824 15.684 37.867 10.043 10.039 23.664 15.684 37.867 15.684h242.72c14.234 0.046875 27.898-5.5742 37.98-15.625 10.078-10.047 15.746-23.691 15.746-37.926v-52.5c0-6.2539-3.3359-12.031-8.75-15.156-5.4141-3.125-12.086-3.125-17.5 0-5.4141 3.125-8.75 8.9023-8.75 15.156v52.5c0 4.9492-1.9805 9.6953-5.4961 13.18-3.5156 3.4844-8.2812 5.418-13.23 5.3711h-242.72c-4.9375 0.046875-9.6797-1.8945-13.172-5.3828-3.4883-3.4883-5.4258-8.2344-5.3789-13.168v-242.73c-0.046875-4.9492 1.8867-9.7109 5.3711-13.23 3.4844-3.5156 8.2266-5.4922 13.18-5.4922h68.949v17.5c0 18.754 10.004 36.086 26.25 45.465 16.242 9.3789 36.254 9.3789 52.5 0 16.242-9.3789 26.25-26.711 26.25-45.465v-17.5h68.773c4.9688 0 9.7305 1.9727 13.242 5.4844 3.5117 3.5117 5.4844 8.2734 5.4844 13.238v52.5c0.17969 4.5195 2.1016 8.793 5.3672 11.926 3.2617 3.1328 7.6094 4.8789 12.133 4.875zm-140-70c0 6.2539-3.3359 12.031-8.75 15.156-5.4141 3.125-12.086 3.125-17.5 0-5.4141-3.125-8.75-8.9023-8.75-15.156v-17.5h35z"/>
  <path d="m110.95 445.2c0.27344 22.711 11.547 43.879 30.242 56.777 18.695 12.898 42.484 15.926 63.812 8.1211 21.332-7.8086 37.547-25.477 43.496-47.398h282.45c6.2539 0 12.031-3.3359 15.156-8.75 3.125-5.4141 3.125-12.086 0-17.5-3.125-5.4141-8.9023-8.75-15.156-8.75h-282.45c-3.1406-12.035-9.4375-23.02-18.234-31.816-8.7969-8.7969-19.777-15.09-31.816-18.234v-282.45c0-6.25-3.3359-12.027-8.75-15.156-5.4141-3.125-12.086-3.125-17.5 0-5.4141 3.1289-8.75 8.9062-8.75 15.156v282.45c-14.988 3.8711-28.27 12.602-37.77 24.824s-14.68 27.246-14.73 42.727zm70-35c9.2852 0 18.188 3.6875 24.75 10.254 6.5625 6.5625 10.25 15.465 10.25 24.746 0 9.2852-3.6875 18.188-10.25 24.75s-15.465 10.25-24.75 10.25c-9.2812 0-18.184-3.6875-24.746-10.25-6.5664-6.5625-10.254-15.465-10.254-24.75 0-9.2812 3.6875-18.184 10.254-24.746 6.5625-6.5664 15.465-10.254 24.746-10.254z"/>
 </g>
</svg>
