<?xml version="1.0" encoding="UTF-8"?><svg id="a" xmlns="http://www.w3.org/2000/svg" viewBox="0 0 243.02 216.73"><defs><style>.b{fill:#303030;}</style></defs><path class="b" d="M223.02,146.3c1.52-2.19,2.56-4.47,3.08-6.81,1.37-6.15,.06-12.12-3.92-17.75-3.92-5.55-10.32-10.64-19.09-15.19,2.08-3.08,3.12-6.36,3.12-9.79,0-10.28-6.47-19.72-18.8-27.59,2.88-3.69,4.33-7.64,4.33-11.79,0-12.79-9.02-23.98-26.09-32.36-15.88-7.79-37.89-12.81-63.66-14.51-4.7-.31-9.45-.47-14.1-.47-7.65,0-15.25,.42-22.58,1.26-11.39,1.29-21.78,3.52-30.91,6.61-9.2,3.12-16.57,6.94-21.92,11.37-5.84,4.83-8.99,10.16-9.37,15.84-.37,5.67,1.96,11.21,6.94,16.46,2.69,2.84,6.13,5.56,10.27,8.15-2.74,3.35-4.29,6.89-4.62,10.59-.49,5.6,1.77,11.13,6.71,16.44,4.24,4.55,10.4,8.86,18.31,12.82-2.23,2.99-3.53,6.16-3.89,9.47-.6,5.6,1.24,11.15,5.48,16.49,3.25,4.1,7.86,8,13.74,11.65-3.11,3.72-4.82,7.69-5.11,11.87-.42,6.22,2.34,12.76,7.99,18.92,7.11,7.75,18.76,14.8,32.81,19.86,15.14,5.45,32.6,8.5,50.47,8.83,1.89,.04,3.8,.05,5.66,.05,23.32,0,44.91-2.71,60.81-7.64,19.17-5.94,29.91-14.84,31.07-25.74,1.11-10.48-4.52-19.54-16.77-27.02Zm-110.47-54.1c7.82,0,15.83,.49,23.79,1.46,19.67,2.39,37.57,6.46,51.79,11.77,2.37,.89,4.63,1.8,6.78,2.75-11.26,9.59-35.42,15.52-63.36,15.52-7.77,0-15.67-.46-23.47-1.35-22.48-2.59-43.11-7.64-58.86-14.36l.29-.23c7.43-5.9,19.69-10.59,34.53-13.19,8.93-1.57,18.52-2.36,28.5-2.36Zm-17.3-6.6c-24.7-2.33-47.22-7.79-63.41-15.37-1.12-.52-2.2-1.05-3.24-1.59,7.5-5.92,19.71-10.72,34.49-13.55,9.89-1.89,20.49-2.85,31.5-2.85,7.05,0,14.22,.4,21.31,1.19,25.25,2.81,46.64,8.34,61.87,16,.54,.27,1.06,.54,1.58,.82-6.9,5.65-18.21,10.27-32.12,13.1-10.27,2.09-21.44,3.15-33.19,3.15-6.19,0-12.51-.3-18.79-.89Zm32.24,44.52c7.06,0,14.26,.42,21.41,1.26,26.97,3.14,48.18,8.11,63.05,14.77,1.11,.5,2.18,1,3.21,1.52-.98,.87-2.07,1.73-3.28,2.57-5.36,3.75-12.83,7.01-21.6,9.44-11.9,3.3-25.89,5.04-40.46,5.04-8.69,0-17.56-.61-26.38-1.8-23.46-3.18-44.32-9.11-59.1-16.79,7.39-5.84,19.15-10.54,33.26-13.27,9.35-1.81,19.41-2.73,29.89-2.73Zm90.62-5.5c3.13,4.42,4.18,9.06,3.12,13.78v.02c-.42,1.85-1.27,3.67-2.56,5.44-1.48-.77-3.05-1.53-4.69-2.26-14.17-6.34-33.78-11.19-58.35-14.41,2.24-.3,4.45-.64,6.62-1.03,16.11-2.86,29.07-8.08,36.48-14.69,.37-.33,.72-.66,1.06-.99,8.52,4.31,14.76,9.1,18.32,14.14Zm-16.88-27.86c0,2.61-.9,5.14-2.68,7.58-2.7-1.24-5.6-2.43-8.68-3.58-13.34-4.98-29.81-8.89-47.88-11.39,2.11-.34,4.19-.71,6.23-1.13,15.65-3.18,28.34-8.64,35.73-15.37,11.33,7.01,17.28,15.19,17.28,23.89ZM8.11,45.43c.57-8.68,10.74-16.99,27.91-22.81,14.44-4.9,32.95-7.59,52.13-7.59,4.5,0,9.05,.15,13.53,.44,25.12,1.66,46.48,6.5,61.78,14.01,15.24,7.48,23.29,17.13,23.3,27.89,0,3.17-1.23,6.26-3.68,9.21-.99-.55-2.02-1.09-3.07-1.62-15.75-7.92-37.73-13.62-63.56-16.5-7.28-.81-14.63-1.22-21.86-1.22-11.32,0-22.23,.99-32.44,2.94-15.92,3.05-29.14,8.37-37.22,15-.35,.28-.68,.57-1.01,.85-10.72-6.44-16.27-13.61-15.8-20.62Zm12.59,35.31c.25-2.89,1.61-5.73,4.04-8.49,1.58,.85,3.24,1.69,4.98,2.5,14.41,6.75,33.61,11.85,54.83,14.66-.46,.07-.92,.15-1.37,.23-15.64,2.74-28.7,7.79-36.77,14.2-.77,.61-1.5,1.24-2.18,1.87h-.02c-15.9-7.7-24.25-16.56-23.52-24.97Zm25.56,51.68c-3.4-4.28-4.89-8.61-4.43-12.86,.29-2.69,1.48-5.3,3.55-7.82,15.49,6.9,35.83,12.18,58.09,15.06-18.3,2.61-33.59,8.21-43,16.03-.27,.22-.53,.45-.79,.68-5.85-3.51-10.36-7.23-13.42-11.1Zm188.57,40.37c-.46,4.31-3.05,8.34-7.7,11.98-4.72,3.69-11.41,6.89-19.88,9.52-15.43,4.78-36.5,7.41-59.33,7.41-1.84,0-3.72-.02-5.57-.05-17.34-.32-34.23-3.27-48.87-8.54-13.3-4.79-24.25-11.37-30.82-18.54-4.7-5.13-7.01-10.38-6.69-15.2,.23-3.32,1.74-6.56,4.52-9.66,15.37,8.34,37.47,14.77,62.31,18.14,9.03,1.22,18.13,1.84,27.04,1.84,15.02,0,29.48-1.8,41.8-5.21,12.53-3.47,22.19-8.45,28.13-14.33,10.91,6.48,15.98,14.08,15.07,22.64Z"/></svg>