<?xml version="1.0" encoding="UTF-8"?>
<svg width="700pt" height="700pt" version="1.1" viewBox="0 0 700 700" xmlns="http://www.w3.org/2000/svg">
 <g>
  <path d="m132.65 392.88h1.2266c3.6289-2.1289 6.3711-5.4961 7.7188-9.4805 1.3516-3.9844 1.2188-8.3242-0.36719-12.219-11.18-25.195-17.531-52.266-18.727-79.801-2.4492-49.898 11.594-99.215 39.965-140.34 28.367-41.125 69.484-71.766 117-87.195 47.516-15.426 98.789-14.789 145.9 1.8242 47.117 16.609 87.453 48.266 114.79 90.086 27.332 41.816 40.141 91.469 36.449 141.29-3.6953 49.82-23.684 97.043-56.887 134.37-33.199 37.328-77.766 62.691-126.82 72.176-49.051 9.4805-99.855 2.5508-144.58-19.715-3.7969-1.7969-8.1172-2.1641-12.164-1.043-4.0469 1.125-7.5586 3.6719-9.8867 7.168v1.0508c-2.3242 4.1562-2.8555 9.082-1.4688 13.641 1.3867 4.5586 4.5742 8.3516 8.8203 10.508 54.887 27.234 117.57 34.414 177.19 20.289s112.42-48.66 149.26-97.621c36.832-48.961 55.379-109.27 52.426-170.47-1.6719-69.617-30.93-135.72-81.34-183.77s-117.84-74.102-187.46-72.43c-69.617 1.6719-135.72 30.93-183.77 81.34-48.047 50.41-74.102 117.84-72.43 187.46 0.023438 36.129 7.4688 71.867 21.875 105 2.0664 4.1055 5.668 7.2344 10.023 8.7109 4.3555 1.4727 9.1172 1.1719 13.25-0.83594z"/>
  <path d="m240.27 348.6c6.4688 34.379 28.676 63.738 60 79.32 31.32 15.578 68.133 15.578 99.453 0 31.324-15.582 53.531-44.941 60-79.32 1-6.2539-1.4141-12.566-6.3281-16.559-4.9141-3.9922-11.582-5.0586-17.5-2.7969-5.9141 2.2578-10.172 7.5-11.172 13.754-4.5508 23.48-19.805 43.492-41.238 54.105-21.434 10.613-46.594 10.613-68.027 0-21.434-10.613-36.684-30.625-41.234-54.105-1-6.2539-5.2617-11.496-11.176-13.754-5.9141-2.2617-12.586-1.1953-17.5 2.7969-4.9141 3.9922-7.3242 10.305-6.3242 16.559z"/>
  <path d="m282.27 232.05v-32.727c0-6.25-3.332-12.027-8.75-15.156-5.4141-3.125-12.082-3.125-17.5 0-5.4141 3.1289-8.75 8.9062-8.75 15.156v32.727c0 6.25 3.3359 12.027 8.75 15.156 5.418 3.125 12.086 3.125 17.5 0 5.418-3.1289 8.75-8.9062 8.75-15.156z"/>
  <path d="m452.73 232.05v-32.727c0-6.25-3.3359-12.027-8.75-15.156-5.418-3.125-12.086-3.125-17.5 0-5.418 3.1289-8.75 8.9062-8.75 15.156v32.727c0 6.25 3.332 12.027 8.75 15.156 5.4141 3.125 12.082 3.125 17.5 0 5.4141-3.1289 8.75-8.9062 8.75-15.156z"/>
 </g>
</svg>
