<?xml version="1.0" encoding="UTF-8"?>
<svg width="700pt" height="700pt" version="1.1" viewBox="0 0 700 700" xmlns="http://www.w3.org/2000/svg">
 <g>
  <path d="m151.38 470.93c2.9805 10.551 9.332 19.84 18.082 26.441 8.7539 6.6055 19.43 10.164 30.395 10.133h76.648c6.2539 0 12.031-3.3359 15.156-8.75s3.125-12.086 0-17.5-8.9023-8.75-15.156-8.75h-76.648c-3.3555-0.015625-6.6172-1.1133-9.2969-3.1328-2.6797-2.0195-4.6367-4.8477-5.5781-8.0664l-51.102-179.2c-1.4219-4.625-0.50781-9.6484 2.4492-13.477 2.9023-3.8438 7.4336-6.1094 12.25-6.125h402.5c4.8164 0.015625 9.3516 2.2812 12.25 6.125 2.9609 3.8281 3.875 8.8516 2.4492 13.477l-50.75 179.2c-0.91406 3.2344-2.8672 6.0781-5.5508 8.1016-2.6875 2.0234-5.9609 3.1094-9.3242 3.0977h-33.773c-6.2539 0-12.031 3.3359-15.156 8.75s-3.125 12.086 0 17.5 8.9023 8.75 15.156 8.75h33.773c10.965 0.03125 21.641-3.5273 30.395-10.133 8.75-6.6016 15.102-15.891 18.082-26.441l51.273-179.2c2.4375-8.6094 2.5547-17.707 0.33984-26.371-2.2109-8.668-6.6758-16.594-12.938-22.98-10.137-9.875-23.832-15.238-37.977-14.875h-94.324v-70c0-37.512-20.012-72.176-52.5-90.934-32.488-18.754-72.512-18.754-105 0-32.488 18.758-52.5 53.422-52.5 90.934v70h-96.426c-8.8945 0.03125-17.617 2.4297-25.277 6.9492-7.6602 4.5234-13.973 11.004-18.297 18.777-6.7031 12.461-8.0898 27.098-3.8516 40.598zm128.62-313.43c0-25.008 13.344-48.117 35-60.621s48.344-12.504 70 0 35 35.613 35 60.621v70h-140z"/>
  <path d="m243.6 301.52c-4.457 1.3008-8.2148 4.3164-10.445 8.3867-2.2305 4.0703-2.7539 8.8594-1.457 13.316l28 98.176v-0.003906c1.0781 4.6797 4.0312 8.7109 8.168 11.148 4.1328 2.4414 9.0898 3.0742 13.707 1.75 4.6133-1.3203 8.4844-4.4844 10.703-8.7422 2.2148-4.2578 2.5859-9.2383 1.0234-13.781l-28-98.176v0.003906c-1.2617-4.4883-4.2656-8.2891-8.3359-10.555-4.0742-2.2656-8.8867-2.8164-13.363-1.5234z"/>
  <path d="m440.3 421.4 28-98.176v0.003906c1.5625-4.543 1.1914-9.5234-1.0234-13.781-2.2188-4.2578-6.0898-7.4219-10.703-8.7422-4.6172-1.3242-9.5742-0.69141-13.707 1.75-4.1367 2.4375-7.0898 6.4688-8.168 11.148l-28 98.176v-0.003906c-1.5625 4.543-1.1914 9.5234 1.0234 13.781 2.2188 4.2578 6.0898 7.4219 10.703 8.7422 4.6172 1.3242 9.5742 0.69141 13.707-1.75 4.1367-2.4375 7.0898-6.4688 8.168-11.148z"/>
 </g>
</svg>
